<svg xmlns="http://www.w3.org/2000/svg" width="438" height="570" viewBox="0 0 438 570">
<g>
<path d="M 214.00 553.29 C211.24,552.28 208.80,549.60 194.97,532.50 C187.41,523.15 172.34,504.70 161.48,491.50 C61.87,370.37 47.77,351.33 31.58,316.09 C23.73,298.98 20.58,290.13 16.64,274.00 C12.37,256.52 12.20,255.16 11.41,233.00 C10.63,211.10 12.50,193.12 17.54,174.00 C31.38,121.57 63.24,78.32 108.89,50.01 C128.14,38.07 147.33,30.11 172.55,23.61 C193.14,18.30 230.99,17.16 255.50,21.11 C265.47,22.72 288.32,29.32 298.68,33.58 C318.14,41.59 338.93,54.10 354.82,67.35 C393.87,99.93 420.80,150.21 426.49,201.17 C431.94,249.91 422.26,293.95 396.58,337.32 C380.78,364.00 357.21,394.88 299.05,465.07 C268.05,502.48 247.17,527.83 239.42,537.46 C228.27,551.32 225.03,554.02 219.72,553.92 C217.40,553.88 214.82,553.59 214.00,553.29 ZM 229.62 402.41 C237.18,396.74 316.71,315.55 322.74,307.34 C335.11,290.51 343.77,270.37 346.55,252.00 C348.39,239.82 348.39,218.18 346.55,205.95 C344.85,194.70 338.91,177.54 333.05,167.00 C318.07,140.04 290.69,117.19 261.74,107.51 C247.21,102.66 236.27,100.99 219.12,101.03 C196.38,101.09 180.31,104.82 160.94,114.53 C130.65,129.72 106.99,157.33 96.67,189.52 C91.79,204.73 90.62,214.89 91.30,236.00 C91.77,250.39 92.31,255.10 94.36,262.50 C99.15,279.78 105.68,293.17 115.96,306.76 C123.49,316.71 208.94,402.62 213.25,404.56 C218.16,406.78 224.98,405.88 229.62,402.41 ZM 210.00 326.00 C198.81,324.57 193.80,323.08 184.00,318.27 C176.13,314.40 173.02,312.12 165.87,305.00 C154.91,294.08 149.05,282.86 146.58,268.07 C144.53,255.85 144.21,164.19 146.20,162.20 C147.56,160.84 183.62,160.47 185.70,161.79 C186.59,162.36 186.97,174.98 187.20,212.03 L 187.50 261.50 L 190.10 267.05 C193.39,274.06 198.01,279.33 203.86,282.76 C207.79,285.07 209.83,285.50 218.22,285.84 C227.22,286.20 228.44,286.02 233.45,283.57 C240.33,280.20 247.27,272.56 249.95,265.41 C251.91,260.16 252.00,257.90 252.00,211.66 C252.00,175.46 252.30,163.10 253.20,162.20 C255.07,160.33 291.36,160.52 292.93,162.41 C293.80,163.47 294.01,177.02 293.74,215.66 C293.40,264.42 293.25,267.93 291.31,274.65 C287.89,286.52 282.48,295.51 273.00,305.08 C265.92,312.23 262.91,314.45 255.00,318.36 C241.41,325.07 224.78,327.89 210.00,326.00 Z" fill="#970747"/>
</g>
</svg>